<svg id="Layer_1" data-name="Layer 1" xmlns="http://www.w3.org/2000/svg" viewBox="0 0 3710.76 3710.76"><defs><style>.cls-1{fill:#e6e6e5;}.cls-2{fill:#b9b8b9;}</style></defs><path class="cls-1" d="M-.07-1855.38c1024.79,0,1855.38,830.6,1855.38,1855.38S1024.72,1855.37-.07,1855.37c-1024.6,0-1855.37-830.59-1855.37-1855.37S-1024.67-1855.38-.07-1855.38ZM1034.26,228.23,365.07-914.72,49.11-375a694.53,694.53,0,0,0-353.06-95.83c-386.21,0-699.1,313.07-699.1,699.1s312.89,699.09,699.1,699.09c386,0,698.92-313.07,698.92-699.09Z" transform="translate(1855.44 1855.38)"/><path class="cls-2" d="M365.07-914.72l669.19,1143H395C395-29,256.09-253.81,49.11-375Z" transform="translate(1855.44 1855.38)"/><path class="cls-1" d="M395,228.23H-303.95L49.11-375C256.09-253.81,395-29,395,228.23Z" transform="translate(1855.44 1855.38)"/><path class="cls-2" d="M-303.95,228.23H395c0,386-312.89,699.09-698.92,699.09-386.21,0-699.1-313.07-699.1-699.09s312.89-699.1,699.1-699.1A694.53,694.53,0,0,1,49.11-375Z" transform="translate(1855.44 1855.38)"/></svg>