<svg id="Layer_1" data-name="Layer 1" xmlns="http://www.w3.org/2000/svg" viewBox="0 0 1244.84 872.11"><defs><style>.cls-1{fill:#0e1634;}.cls-2{fill:#fff;}.cls-3{fill:#fdb71d;}.cls-4{fill:#775c2b;}</style></defs><path class="cls-1" d="M227.11-32.75,245-33c34.12-8.82,68.22-11.24,99.69,7.65,22.89,13.73,32.88,35.84,32.84,62.62q-.07,65.46,0,130.92c0,6.19-.83,12.52,1.17,18.55,6.68,1,9.87-3.76,13.68-6.71,46.81-36.17,94.24-71.52,141.05-107.68,5.44-4.19,10.67-8.92,18.28-8.46,29.49-17.69,55.42-40.24,82.52-61.11,32.5-25,65-49.1,107.2-54.66,1.12-.15,2.21-.87,3.31-.87q56.58-.08,113.27,0c-1.1,6.11-7.41,11.84-13.3,17.89C800.31,10.69,755.26,55.77,711.6,102.16,661.28,155.65,610.11,208.3,559.39,261.4c-49.92,52.26-99.47,104.88-150,156.59-49.3,50.46-97.47,102-146.52,152.74-11.12,11.5-23.93,21.36-35.75,32.19-7.89,7.21-18.53,7.94-27.56,12.4h-31C64.81,553.1-23.68,470.67-119.49,398-200.5,336.48-280.31,273.43-360.6,211c-8-6.25-15.68-13-26.17-21.68,67.93,3.44,132.64,1.62,197.35,1.79,7.45-7.5,17-6.3,25.9-5.27,45.14,5.18,90.41,1.28,135.59,2.68,13.74.43,17.86-5.74,17.83-18.55-.1-44.66-.41-89.32.12-134,.65-53.83,51.57-91.2,115.84-69l25,.38c-1,19.72-13.38,34-31.78,36-11.42,1.27-23-.07-34.4.9C44.43,6,33.63,15.81,33.21,35.87c-1,49.9-.56,99.82-.24,149.74.06,9.26,4,16.6,10.84,22.49,43.06,37,83.67,76.76,126.75,113.75,14.79,12.7,19,13.28,34.52,1.93,40.75-29.83,79.86-61.82,120-92.42,6.9-5.26,10.09-12.17,10.12-20.8.22-57.94.6-115.89-.2-173.83-.3-21.43-10.41-30.84-32.13-32.5-13.17-1-26.43.4-39.58-.81C243.52,1.61,228-14.12,227.11-32.75Z" transform="translate(386.77 256.79)"/><path class="cls-2" d="M551.77,63.84Q481.86,117.9,411.94,172c-12.5,9.65-25.14,19.09-40,30.33,0-54.19,0-105.57,0-156.95,0-54.26-24-78-78.78-78.07-16.06,0-32.12-.2-48.18-.3,8-19.18,23.27-27,43.2-27.24,8.59-.12,17.2.32,25.77-.1,17.86-.9,36.77-16.51,41.77-33.17,2.46-8.18-4.91-9.21-8.31-12.59a89.94,89.94,0,0,1,5.35-133.52c9.85-8.3,22.13-11.17,33-17.13h27.58c24.85,9,45.39,22.77,56.83,48C485.9-174,480-134.21,452.62-107.55c-7.2,7-7.9,11-3,19.65,11.42,20,27.11,28.76,50.49,27.94,34.1-1.19,51,17,51.15,51.65C551.4,15.74,551.61,39.79,551.77,63.84Z" transform="translate(386.77 256.79)"/><path class="cls-2" d="M227.11-32.75C237.6-10.66,252.7,1,279.52-1.21c53.24-4.4,63.31,7,61.74,61-1.48,51.07-.58,102.22-.09,153.33.09,9.65-3,15.5-10.62,21.31-40.62,30.92-80.71,62.55-121.11,93.77-20,15.45-23.79,15.18-42.44-1.66C123.94,287.65,81.07,248.59,37.75,210c-7.39-6.58-10.95-13-10.83-23.29.57-49.38.17-98.78.28-148.17C27.27,11,39.63-1.43,66.9-1.7c4.6-.05,9.32-.69,13.77.11,26.18,4.7,40.53-9.3,50.19-31.07,10.52-8.54,8.3-13.67-2.11-22.21-29.21-24-40.89-56.19-34.1-93.39,6.6-36.24,26.44-63,63-74,50.25-15.14,101.81,24.34,106.78,82.17,3,34.69-8.29,65.12-36.49,86.06C215.54-44.77,219.65-40.14,227.11-32.75Z" transform="translate(386.77 256.79)"/><path class="cls-2" d="M105.86-33l-39.56.31c-42.89.38-69.9,27-70.11,69.58q-.35,73.08.05,146.17c0,7.55.19,12.75-10.38,12.46-58.42-1.58-116.91-.31-175.28-4.36-8.47-12.15-11.35-25.51-11.19-40.38.55-50.48,1.75-101-.26-151.42-1.69-42,20.65-63.57,59.64-59.62,21.85,2.22,37.1-6.9,48.07-25.75,5-8.51,6.07-13-2.1-21.09-43.4-43.26-29.5-118.44,25-140.41,27.24-11,52-6,73.75,12.3C28.73-214,37.67-185.74,32.53-153.48c-3,19.07-11.35,36.2-26.52,48.68C-.7-99.28.81-95.36,4.16-89.15,15.33-68.46,31.42-58,55.71-60.12,77.89-62.08,96.41-55.5,105.86-33Z" transform="translate(386.77 256.79)"/><path class="cls-3" d="M786-18.71q-269,280.31-538,560.57c-10.32,10.75-21.17,21-32.23,31-17,15.4-43.69,15-66.15-2.55q-220-171.53-439.58-343.64c-.74-.58-1.06-1.7-2.27-3.76,36.54,0,72.35-.39,108.14.09,59.14.8,118.27,2.47,177.42,3,11.77.12,20.63,3.46,29.22,11.37,41.39,38.13,84.11,74.88,124.57,114,27.21,26.29,54,22.48,79.55,2.61Q306.21,292.18,386,230.71,533.67,117.62,681.65,5c26.61-20.3,56.9-28.85,90.12-27.82C777.07-23.34,783.65-28.29,786-18.71Z" transform="translate(386.77 256.79)"/><path class="cls-4" d="M786-18.71c-3.4-6.07-9.81-1.69-14.26-4.12C785.34-27,786.73-26.62,786-18.71Z" transform="translate(386.77 256.79)"/></svg>